<svg xmlns="http://www.w3.org/2000/svg" data-name="Layer 1" viewBox="0 0 512 512"><path fill="#0abeef" d="M66,448.77a30,30,0,0,1-30-30V313.3a29.86,29.86,0,0,1,25.27-29.62L234.78,256,61.27,228.33A29.88,29.88,0,0,1,36,198.7V93.24A30,30,0,0,1,77.67,65.6L455.48,225.06a33.59,33.59,0,0,1,0,61.88L77.67,446.4A30,30,0,0,1,66,448.77ZM66,83.22a10,10,0,0,0-5.5,1.68A9.87,9.87,0,0,0,56,93.24V198.7a10,10,0,0,0,8.42,9.88L285.24,243.8a12.35,12.35,0,0,1,0,24.4L64.42,303.43A9.94,9.94,0,0,0,56,313.3V418.76A10,10,0,0,0,69.89,428L447.7,268.51a13.58,13.58,0,0,0,0-25L69.89,84A10.25,10.25,0,0,0,66,83.22Z"/></svg>